<?xml version="1.0" encoding="iso-8859-1"?>
<!-- Generator: Adobe Illustrator 16.0.0, SVG Export Plug-In . SVG Version: 6.00 Build 0)  -->
<!DOCTYPE svg PUBLIC "-//W3C//DTD SVG 1.1//EN" "http://www.w3.org/Graphics/SVG/1.1/DTD/svg11.dtd">
<svg version="1.1" id="&#x5716;&#x5C64;_1" xmlns="http://www.w3.org/2000/svg" xmlns:xlink="http://www.w3.org/1999/xlink" x="0px"
	 y="0px" width="683px" height="639px" viewBox="141 0.099 683 639" style="enable-background:new 141 0.099 683 639;"
	 xml:space="preserve">
<g>
	
		<linearGradient id="SVGID_1_" gradientUnits="userSpaceOnUse" x1="81.96" y1="302.865" x2="764.96" y2="302.865" gradientTransform="matrix(1 0 0 -1 59.04 622.4644)">
		<stop  offset="0" style="stop-color:#F25C78"/>
		<stop  offset="0.25" style="stop-color:#D3557D"/>
		<stop  offset="0.25" style="stop-color:#80418A"/>
		<stop  offset="0.5" style="stop-color:#753F8C"/>
		<stop  offset="0.5" style="stop-color:#E6C16A"/>
		<stop  offset="0.75" style="stop-color:#F2CF66"/>
		<stop  offset="0.75" style="stop-color:#F28444"/>
	</linearGradient>
	<rect x="141" y="0.099" style="fill:url(#SVGID_1_);" width="683" height="639"/>
	<g>
		<g>
			<g>
				<path style="fill:#FFFFFF;" d="M275.766,275.63c-29.466-0.632-27.219-5.264-32.061-7.366c-2.845-1.237-6.31-0.222-8.69,0.827
					c0.216-1.314,0.409-2.692,0.562-4.075c0.184-1.579,0.319-3.158,0.407-4.64c0.11-1.479,0.136-2.86,0.184-4.046
					c0.007-0.592,0.015-1.137,0.021-1.618c-0.007-0.479,0.042-0.904-0.015-1.251c-0.083-0.172-0.302-0.336-0.637-0.471
					c-0.302-0.135-0.687-0.269-1.075-0.36c-0.448-0.094-0.791-0.266-1.022-0.313c-0.307-0.049-0.466-0.217-0.466-0.217h-1.684
					c0,0-0.158,0.168-0.465,0.215c-0.231,0.049-0.574,0.232-1.022,0.327c-0.388,0.092-0.772,0.221-1.075,0.354
					c-0.335,0.135-0.553,0.294-0.636,0.468c-0.057,0.345-0.007,0.771-0.016,1.251c0.007,0.481,0.014,1.023,0.021,1.614
					c0.048,1.187,0.074,2.566,0.185,4.047c0.087,1.48,0.223,3.06,0.406,4.64c0.153,1.377,0.345,2.749,0.56,4.062
					c-2.464-1.043-6.011-2.047-8.843-0.813c-4.841,2.103-2.742,6.733-32.209,7.365c-2.487,2.104-1.495,13.075,11.669,13.158
					c1.317,0.008,2.754-0.089,4.324-0.318c0.21,1.263-5.777,14.102,16.323,8.418c1.052,0.632,6.131,9.473,11.691,8.42
					c5.561,1.053,10.381-7.788,11.434-8.42c22.101,5.684,15.854-7.155,16.064-8.418c1.355,0.197,2.604,0.29,3.771,0.31
					C277.164,289,278.288,277.763,275.766,275.63z"/>
				<path style="fill:#FFFFFF;" d="M268.953,294.489c-1.549,0.438-3.364,0.679-5.481,0.644c-1.065-0.017-2.209-0.104-3.43-0.271
					c-0.07,0.203-0.159,0.401-0.26,0.597c0.629,2.869,3.886,12.936-16.146,7.783c-1.053,0.632-5.873,9.474-11.434,8.419
					c-5.56,1.055-10.639-7.787-11.691-8.419c-20.461,5.263-16.848-5.348-16.367-7.952c-0.069-0.145-0.128-0.29-0.183-0.438
					c-1.48,0.207-2.845,0.299-4.097,0.291c-2.084-0.015-3.861-0.3-5.369-0.78c-7.799,9.673-10.964,22.184-7.662,34.391
					c6.933,25.824,23.582,47.399,44.838,47.39c21.257,0.011,37.906-21.564,44.839-47.39
					C279.8,316.599,276.677,304.145,268.953,294.489z"/>
			</g>
			<g>
				<g>
					<path style="fill:#F25C78;" d="M257.103,312.49c0,0-0.017,0.184,0.006,0.451c0.028,0.262,0.09,0.615,0.243,0.957
						c0.145,0.346,0.374,0.685,0.694,0.981c0.307,0.31,0.643,0.631,1.004,0.928c0.717,0.605,1.507,1.119,2.179,1.429
						c0.658,0.324,1.191,0.441,1.191,0.441c0.64,0.146,1.36-0.289,1.545-0.979c0.069-0.243,0.064-0.48,0-0.688
						c0,0-0.158-0.521-0.531-1.151c-0.356-0.642-0.943-1.403-1.6-2.067c-0.324-0.337-0.67-0.646-1.002-0.929
						c-0.321-0.295-0.679-0.498-1.032-0.614c-0.346-0.119-0.705-0.154-0.968-0.165c-0.27-0.001-0.453,0.029-0.453,0.029
						C257.662,311.241,257.181,311.805,257.103,312.49z"/>
				</g>
				<g>
					<path style="fill:#F25C78;" d="M245.032,320.555c0,0-0.092,0.158-0.181,0.409c-0.081,0.248-0.17,0.592-0.17,0.966
						c-0.008,0.375,0.064,0.781,0.235,1.182c0.155,0.407,0.331,0.837,0.54,1.254c0.405,0.841,0.922,1.639,1.411,2.197
						c0.47,0.566,0.911,0.896,0.911,0.896c0.533,0.409,1.35,0.258,1.812-0.273c0.163-0.19,0.256-0.407,0.283-0.623
						c0,0,0.068-0.54-0.022-1.276c-0.07-0.741-0.293-1.668-0.623-2.542c-0.16-0.438-0.351-0.86-0.539-1.255
						c-0.174-0.397-0.418-0.731-0.696-0.981c-0.269-0.256-0.579-0.427-0.813-0.535c-0.242-0.104-0.423-0.153-0.423-0.153
						C246.04,319.621,245.379,319.96,245.032,320.555z"/>
				</g>
				<g>
					<path style="fill:#F25C78;" d="M230.714,322.984c0,0-0.149,0.109-0.333,0.306c-0.175,0.196-0.396,0.479-0.548,0.82
						c-0.16,0.344-0.258,0.738-0.266,1.177c-0.022,0.436-0.037,0.898-0.015,1.368c0.03,0.931,0.179,1.864,0.4,2.571
						c0.199,0.705,0.468,1.18,0.468,1.18c0.321,0.572,1.127,0.82,1.763,0.491c0.227-0.112,0.399-0.273,0.511-0.462
						c0,0,0.281-0.468,0.499-1.167c0.238-0.697,0.412-1.628,0.466-2.565c0.033-0.467,0.032-0.933,0.02-1.366
						c0.004-0.437-0.084-0.839-0.235-1.179c-0.143-0.344-0.357-0.634-0.526-0.835c-0.18-0.202-0.326-0.315-0.326-0.315
						c-0.288-0.226-0.618-0.331-0.946-0.324C231.319,322.678,230.994,322.774,230.714,322.984z"/>
				</g>
				<g>
					<path style="fill:#F25C78;" d="M216.649,319.411c0,0-0.18,0.04-0.425,0.141c-0.238,0.104-0.552,0.266-0.829,0.514
						c-0.285,0.242-0.538,0.568-0.723,0.965c-0.198,0.387-0.4,0.807-0.572,1.239c-0.353,0.863-0.602,1.782-0.691,2.522
						c-0.108,0.729-0.059,1.277-0.059,1.277c0.062,0.646,0.71,1.175,1.413,1.164c0.25-0.001,0.477-0.086,0.656-0.214
						c0,0,0.45-0.316,0.936-0.871c0.504-0.546,1.043-1.327,1.471-2.155c0.221-0.411,0.408-0.836,0.574-1.238
						c0.181-0.396,0.266-0.802,0.267-1.178c0.011-0.371-0.069-0.719-0.144-0.968c-0.083-0.254-0.17-0.414-0.17-0.414
						C218.01,319.555,217.338,319.244,216.649,319.411z"/>
				</g>
				<g>
					<path style="fill:#F25C78;" d="M205.259,310.396c0,0-0.183-0.037-0.452-0.042c-0.268,0.006-0.618,0.025-0.969,0.138
						c-0.357,0.105-0.72,0.302-1.049,0.587c-0.338,0.273-0.693,0.575-1.026,0.902c-0.673,0.646-1.281,1.391-1.657,2.026
						c-0.389,0.62-0.561,1.136-0.561,1.136c-0.204,0.614,0.148,1.383,0.813,1.642c0.237,0.093,0.473,0.111,0.689,0.068
						c0,0,0.537-0.105,1.203-0.411c0.68-0.292,1.487-0.787,2.214-1.368c0.368-0.287,0.713-0.602,1.028-0.899
						c0.327-0.289,0.565-0.622,0.722-0.968c0.163-0.337,0.232-0.688,0.268-0.949c0.028-0.268,0.016-0.45,0.016-0.45
						C206.436,311.089,205.945,310.533,205.259,310.396z"/>
				</g>
				<g>
					<path style="fill:#F25C78;" d="M257.371,328.506c0,0-0.083,0.164-0.16,0.423c-0.067,0.254-0.139,0.604-0.12,0.979
						c0.009,0.375,0.1,0.773,0.29,1.167c0.175,0.398,0.371,0.82,0.6,1.229c0.448,0.824,1,1.588,1.514,2.122
						c0.495,0.54,0.949,0.843,0.949,0.843c0.544,0.369,1.373,0.223,1.795-0.354c0.154-0.201,0.235-0.425,0.251-0.642
						c0,0,0.041-0.544-0.078-1.267c-0.1-0.727-0.371-1.65-0.741-2.508c-0.18-0.431-0.391-0.846-0.597-1.229
						c-0.192-0.392-0.452-0.712-0.74-0.947c-0.278-0.236-0.6-0.399-0.842-0.504c-0.25-0.101-0.432-0.138-0.432-0.138
						C258.344,327.544,257.691,327.896,257.371,328.506z"/>
				</g>
				<g>
					<path style="fill:#F25C78;" d="M245.606,337.108c0,0-0.14,0.118-0.311,0.321c-0.162,0.204-0.363,0.496-0.492,0.848
						c-0.137,0.349-0.208,0.755-0.188,1.19c0.006,0.436,0.022,0.898,0.074,1.362c0.09,0.929,0.301,1.854,0.566,2.549
						c0.246,0.694,0.547,1.154,0.547,1.154c0.358,0.571,1.177,0.708,1.793,0.37c0.22-0.124,0.382-0.294,0.482-0.486
						c0,0,0.25-0.483,0.419-1.206c0.191-0.722,0.301-1.666,0.292-2.602c0.002-0.466-0.031-0.931-0.072-1.364
						c-0.026-0.435-0.14-0.831-0.313-1.162c-0.165-0.331-0.397-0.599-0.579-0.782c-0.191-0.182-0.344-0.29-0.344-0.29
						C246.874,336.579,246.138,336.67,245.606,337.108z"/>
				</g>
				<g>
					<path style="fill:#F25C78;" d="M230.055,340.12c0,0-0.147,0.11-0.333,0.308c-0.175,0.196-0.396,0.479-0.546,0.82
						c-0.161,0.346-0.259,0.738-0.267,1.178c-0.023,0.433-0.036,0.897-0.015,1.366c0.03,0.932,0.179,1.865,0.399,2.571
						c0.2,0.705,0.47,1.182,0.47,1.182c0.32,0.57,1.127,0.818,1.762,0.49c0.228-0.111,0.399-0.273,0.512-0.462
						c0,0,0.28-0.468,0.498-1.166c0.238-0.699,0.412-1.63,0.465-2.565c0.033-0.466,0.032-0.933,0.02-1.366
						c0.004-0.438-0.084-0.839-0.235-1.179c-0.142-0.346-0.357-0.636-0.526-0.836c-0.18-0.201-0.325-0.315-0.325-0.315
						c-0.289-0.227-0.618-0.331-0.946-0.324C230.661,339.816,230.335,339.912,230.055,340.12z"/>
				</g>
				<g>
					<path style="fill:#F25C78;" d="M214.541,336.578c0,0-0.152,0.104-0.346,0.283c-0.185,0.185-0.419,0.448-0.587,0.779
						c-0.177,0.329-0.295,0.725-0.325,1.16c-0.045,0.432-0.083,0.896-0.086,1.361c-0.017,0.935,0.084,1.88,0.267,2.604
						c0.163,0.72,0.408,1.213,0.408,1.213c0.292,0.58,1.087,0.84,1.738,0.576c0.233-0.093,0.414-0.254,0.536-0.438
						c0,0,0.305-0.458,0.557-1.149c0.273-0.691,0.493-1.615,0.594-2.541c0.056-0.465,0.078-0.929,0.087-1.364
						c0.025-0.436-0.042-0.843-0.176-1.193c-0.125-0.351-0.325-0.645-0.483-0.849c-0.169-0.208-0.309-0.326-0.309-0.326
						C215.862,336.22,215.123,336.174,214.541,336.578z"/>
				</g>
				<g>
					<path style="fill:#F25C78;" d="M203.026,326.879c0,0-0.181,0.045-0.428,0.154c-0.239,0.117-0.549,0.282-0.819,0.533
						c-0.279,0.246-0.526,0.577-0.703,0.976c-0.191,0.392-0.385,0.813-0.548,1.252c-0.336,0.869-0.572,1.803-0.644,2.536
						c-0.091,0.728-0.027,1.268-0.027,1.268c0.075,0.644,0.719,1.189,1.431,1.143c0.253-0.017,0.476-0.099,0.653-0.229
						c0,0,0.441-0.323,0.916-0.883c0.493-0.552,1.015-1.343,1.428-2.178c0.213-0.414,0.393-0.846,0.551-1.25
						c0.174-0.399,0.25-0.803,0.246-1.182c0.004-0.374-0.082-0.723-0.159-0.973c-0.087-0.256-0.177-0.416-0.177-0.416
						C204.384,327.008,203.705,326.712,203.026,326.879z"/>
				</g>
				<g>
					<path style="fill:#F25C78;" d="M236.563,354.147c0,0-0.107,0.113-0.229,0.307c-0.115,0.191-0.254,0.463-0.324,0.774
						c-0.079,0.313-0.095,0.672-0.032,1.045c0.05,0.374,0.113,0.772,0.204,1.167c0.173,0.788,0.443,1.567,0.734,2.14
						c0.273,0.575,0.566,0.944,0.566,0.944c0.351,0.45,1.035,0.499,1.505,0.151c0.167-0.127,0.283-0.289,0.347-0.464
						c0,0,0.158-0.437,0.231-1.063c0.088-0.64,0.089-1.467-0.005-2.271c-0.042-0.402-0.113-0.801-0.187-1.172
						c-0.061-0.371-0.193-0.703-0.37-0.975c-0.169-0.271-0.387-0.475-0.559-0.625c-0.179-0.146-0.318-0.225-0.318-0.225
						C237.577,353.57,236.963,353.713,236.563,354.147z"/>
				</g>
				<g>
					<path style="fill:#F25C78;" d="M224.255,353.774c0,0-0.14,0.075-0.32,0.212c-0.172,0.141-0.396,0.346-0.568,0.615
						c-0.18,0.268-0.317,0.598-0.384,0.97c-0.08,0.37-0.157,0.767-0.205,1.168c-0.106,0.803-0.117,1.627-0.04,2.267
						c0.063,0.636,0.213,1.079,0.213,1.079c0.18,0.525,0.802,0.82,1.362,0.651c0.202-0.061,0.365-0.172,0.484-0.313
						c0,0,0.296-0.357,0.58-0.934c0.299-0.568,0.583-1.345,0.768-2.133c0.097-0.394,0.167-0.791,0.222-1.165
						c0.07-0.371,0.059-0.727-0.015-1.042c-0.066-0.313-0.202-0.583-0.313-0.776c-0.12-0.188-0.223-0.314-0.223-0.314
						C225.406,353.578,224.783,353.484,224.255,353.774z"/>
				</g>
			</g>
		</g>
		<g>
			<g>
				<g>
					<circle style="fill:#FFFFFF;" cx="359.895" cy="295.145" r="11.279"/>
					<circle style="fill:#FFFFFF;" cx="386.147" cy="295.145" r="11.279"/>
					<circle style="fill:#FFFFFF;" cx="412.401" cy="295.145" r="11.279"/>
					<circle style="fill:#FFFFFF;" cx="438.653" cy="295.145" r="11.279"/>
				</g>
				<g>
					<circle style="fill:#FFFFFF;" cx="386.791" cy="340.227" r="11.279"/>
					<circle style="fill:#FFFFFF;" cx="412.222" cy="340.227" r="11.279"/>
				</g>
				<g>
					<circle style="fill:#FFFFFF;" cx="373.021" cy="317.897" r="11.279"/>
					<circle style="fill:#FFFFFF;" cx="399.274" cy="317.897" r="11.279"/>
					<circle style="fill:#FFFFFF;" cx="425.527" cy="317.897" r="11.279"/>
				</g>
				<circle style="fill:#FFFFFF;" cx="399.476" cy="362.557" r="11.279"/>
			</g>
			<path style="fill:#FFFFFF;" d="M397.546,284.031c0,0,0.261-1.848,0.652-4.616c0.19-1.385,0.4-2.998,0.614-4.723
				c0.097-0.862,0.197-1.754,0.299-2.659c0.091-0.905,0.195-1.824,0.254-2.743l0.12-1.373c0.028-0.455,0.055-0.909,0.083-1.359
				c0.068-0.901,0.084-1.785,0.099-2.638c0.039-0.856,0.015-1.673,0.009-2.447c0.014-0.781-0.078-1.495-0.116-2.164
				c-0.022-0.675-0.157-1.255-0.218-1.784c-0.036-0.264-0.027-0.519-0.013-0.756c0.009-0.233,0.013-0.442,0.051-0.646
				c0.058-0.401,0.188-0.755,0.293-1.008c0.101-0.251,0.208-0.41,0.198-0.406c-0.064-0.189,0.037-0.396,0.227-0.46
				c0.19-0.065,0.397,0.036,0.461,0.228c-0.009,0.003,0.158,0.07,0.37,0.244c0.218,0.171,0.513,0.438,0.781,0.827
				c0.138,0.192,0.274,0.418,0.388,0.665c0.088,0.251,0.176,0.524,0.226,0.824c0.097,0.6,0.221,1.284,0.249,2.016
				c0.04,0.729,0.132,1.53,0.114,2.358c-0.002,0.831,0.034,1.713-0.034,2.608c-0.048,0.898-0.102,1.828-0.207,2.761
				c-0.083,0.938-0.185,1.884-0.329,2.823c-0.125,0.943-0.296,1.877-0.452,2.796c-0.147,0.922-0.348,1.816-0.529,2.686
				c-0.198,0.864-0.39,1.699-0.571,2.49c-0.208,0.784-0.407,1.525-0.588,2.209c-0.755,2.728-1.424,4.506-1.424,4.506
				c-0.102,0.27-0.403,0.407-0.673,0.306C397.647,284.505,397.513,284.268,397.546,284.031z"/>
			<g>
				<path style="fill:#FFFFFF;" d="M390.676,264.093c0.5,0.006,1.005-0.024,1.496-0.101c0.244-0.041,0.489-0.081,0.721-0.153
					c0.117-0.032,0.235-0.063,0.343-0.11c0.107-0.047,0.228-0.075,0.321-0.14c0.094-0.062,0.208-0.102,0.284-0.177
					c0.071-0.075,0.176-0.128,0.222-0.215c0.04-0.088,0.132-0.149,0.137-0.248c0.007-0.096,0.075-0.168,0.047-0.274
					c-0.015-0.1-0.001-0.192-0.029-0.294l-0.104-0.307c-0.02-0.103-0.105-0.201-0.154-0.302l-0.17-0.299l0.052,0.065
					c-0.966-0.862-2.105-1.625-3.283-2.04c-0.586-0.229-1.19-0.304-1.749-0.271c-0.269,0.063-0.553,0.064-0.786,0.217
					c-0.12,0.062-0.248,0.104-0.364,0.172l-0.317,0.27c-0.231,0.145-0.387,0.409-0.565,0.637c-0.194,0.209-0.318,0.497-0.451,0.773
					c-0.308,0.52-0.443,1.168-0.649,1.761l-0.036,0.112l0.166,0.015c0.045-0.207,0.192-0.054,0.192-0.098v0.009l-0.174,0.031
					l-0.093,0.063l-0.072,0.254l-0.048,0.251l0.006,0.187c0.002,0.23,0.047,0.519,0.104,0.809c0.048,0.286,0.165,0.563,0.241,0.843
					c0.133,0.263,0.231,0.54,0.385,0.788c0.301,0.501,0.665,0.952,1.083,1.344c0.409,0.403,0.895,0.714,1.394,0.999l0.79,0.375
					c0.273,0.108,0.565,0.188,0.847,0.285c0.278,0.11,0.581,0.162,0.884,0.22c0.304,0.054,0.603,0.138,0.914,0.17
					c0.632,0.009,1.26,0.152,1.911,0.104c0.646-0.042,1.308,0.028,1.966-0.078c0.658-0.078,1.336-0.172,2.002-0.289
					c0.667-0.104,1.345-0.352,2.04-0.352h0.009c0.061,0,0.114,0.125,0.121,0.186c0.004,0.046-0.02,0.131-0.058,0.151
					c-0.612,0.324-1.24,0.647-1.878,0.938c-0.631,0.312-1.316,0.484-1.985,0.718c-0.667,0.237-1.381,0.34-2.086,0.473
					c-0.702,0.149-1.445,0.128-2.176,0.169c-0.368-0.002-0.741-0.058-1.114-0.085c-0.374-0.028-0.748-0.068-1.116-0.188
					c-0.368-0.104-0.746-0.178-1.106-0.315l-1.063-0.491c-0.67-0.413-1.309-0.886-1.849-1.47c-0.541-0.578-0.966-1.253-1.303-1.957
					c-0.168-0.354-0.28-0.729-0.419-1.091c-0.082-0.384-0.198-0.754-0.237-1.145c-0.044-0.385-0.086-0.773-0.05-1.228l0.016-0.325
					l0.045-0.256l0.046-0.251l0.012-0.063l0.006-0.031l0.026-0.12l0.006-0.017l0.05-0.128c0.283-0.68,0.479-1.37,0.904-2.015
					c0.187-0.326,0.361-0.655,0.645-0.942c0.262-0.294,0.49-0.606,0.849-0.825l0.498-0.351c0.181-0.093,0.382-0.158,0.573-0.234
					c0.377-0.182,0.793-0.187,1.195-0.234c0.799,0,1.567,0.174,2.234,0.484c0.689,0.279,1.282,0.695,1.856,1.113
					c0.567,0.436,1.081,0.899,1.575,1.431l0.024,0.025c0.011,0.013,0.021,0.026,0.028,0.042l0.177,0.38
					c0.052,0.131,0.13,0.239,0.156,0.391l0.102,0.429c0.025,0.146,0.005,0.312,0.003,0.464c0.014,0.153-0.083,0.31-0.127,0.46
					c-0.042,0.159-0.176,0.264-0.265,0.392c-0.096,0.127-0.233,0.19-0.348,0.284c-0.119,0.091-0.254,0.128-0.38,0.192
					c-0.517,0.207-1.045,0.272-1.564,0.304c-0.52,0.025-1.035,0.006-1.548-0.052c-0.06-0.007-0.103-0.062-0.096-0.12
					C390.57,264.134,390.621,264.092,390.676,264.093z"/>
			</g>
			<path style="fill:#FFFFFF;" d="M405.816,272.728c0,0,9.09-11.929,17.989-2.272c0.569,1.326,0.19,1.704-5.112,2.272
				C414.905,275.001,410.171,276.327,405.816,272.728z"/>
		</g>
		<g>
			<path style="fill:#FFFFFF;" d="M602.603,268.241c0,0,9.787-3.541,11.661-5.414c2.083-0.625,3.957,0.832,3.125,2.707
				c-0.833,1.875-7.712,12.912-7.292,14.578c0.419,1.666,22.703,30.824,1.668,65.396c-7.08,9.58-20.408,26.032-47.066,17.493
				c-0.207-1.875,27.699-29.155,30.615-61.021c1.458-4.373,4.998-18.535,7.705-22.076
				C603.227,276.78,602.603,268.241,602.603,268.241z"/>
			<path style="fill:#FFFFFF;" d="M587.886,301.426c0,0,1.943-1.111,2.082,2.498c0.139,3.61-6.664,28.881-18.744,41.377
				c-0.972,1.108-12.217,21.379-29.572,10.688c-6.247-4.164-9.721-8.051-6.942-9.022
				C535.958,346.271,554.979,348.215,587.886,301.426z"/>
			<path style="fill:#FFFFFF;" d="M592.742,285.876c0,0,3.89-0.002,0.558,4.304c-3.332,4.307-30.13,45.123-52.344,46.233
				c-22.214,1.111-23.881-18.467-15.55-17.493c4.857-0.693,32.628-7.218,47.622-21.104
				C576.223,293.927,584.409,285.042,592.742,285.876z"/>
		</g>
		<g>
			<g>
				<path style="fill:#FFFFFF;" d="M762.835,286.301c0,0,7.836,6.68,3.382,11.481c-5.256,5.673-21.296,11.646-27.734,13.536
					c0,0-0.327,0.103-0.548-0.117"/>
				<path style="fill:#FFFFFF;" d="M763.134,286.6c0,0-6.678-7.835-11.48-3.384c-5.674,5.257-11.646,21.298-13.536,27.734
					c0,0-0.103,0.329,0.118,0.55"/>
				<path style="fill:#FFFFFF;" d="M774.431,313.873c0,0,0.818,10.263-5.728,10.51c-7.729,0.295-23.294-6.822-29.183-10.039
					c0,0-0.305-0.161-0.305-0.471"/>
				<path style="fill:#FFFFFF;" d="M774.431,314.296c0,0,0.818-10.265-5.728-10.513c-7.729-0.293-23.294,6.825-29.183,10.042
					c0,0-0.305,0.159-0.305,0.471"/>
				<path style="fill:#FFFFFF;" d="M763.134,341.568c0,0-6.678,7.835-11.48,3.381c-5.674-5.256-11.646-21.296-13.536-27.733
					c0,0-0.103-0.328,0.118-0.547"/>
				<path style="fill:#FFFFFF;" d="M762.835,341.867c0,0,7.836-6.679,3.382-11.482c-5.256-5.671-21.296-11.646-27.734-13.535
					c0,0-0.327-0.103-0.548,0.119"/>
				<path style="fill:#FFFFFF;" d="M735.563,353.163c0,0-10.264,0.819-10.512-5.727c-0.293-7.729,6.824-23.295,10.04-29.184
					c0,0,0.16-0.305,0.472-0.305"/>
				<path style="fill:#FFFFFF;" d="M735.14,353.163c0,0,10.265,0.819,10.512-5.727c0.294-7.729-6.824-23.295-10.041-29.184
					c0,0-0.159-0.305-0.471-0.305"/>
				<path style="fill:#FFFFFF;" d="M707.867,341.867c0,0-7.835-6.678-3.382-11.48c5.256-5.673,21.295-11.646,27.733-13.537
					c0,0,0.327-0.103,0.547,0.119"/>
				<path style="fill:#FFFFFF;" d="M707.567,341.568c0,0,6.679,7.835,11.481,3.381c5.672-5.256,11.646-21.296,13.535-27.733
					c0,0,0.102-0.328-0.118-0.547"/>
				<path style="fill:#FFFFFF;" d="M696.271,314.296c0,0-0.817-10.264,5.729-10.511c7.729-0.294,23.293,6.823,29.182,10.04
					c0,0,0.306,0.159,0.306,0.471"/>
				<path style="fill:#FFFFFF;" d="M696.271,313.873c0,0-0.817,10.263,5.729,10.51c7.729,0.295,23.293-6.822,29.182-10.039
					c0,0,0.306-0.159,0.306-0.471"/>
				<path style="fill:#FFFFFF;" d="M707.567,286.6c0,0,6.679-7.835,11.481-3.384c5.672,5.258,11.646,21.298,13.535,27.734
					c0,0,0.102,0.329-0.118,0.55"/>
				<path style="fill:#FFFFFF;" d="M707.867,286.301c0,0-7.835,6.68-3.382,11.481c5.256,5.673,21.295,11.646,27.733,13.536
					c0,0,0.327,0.103,0.547-0.117"/>
				<path style="fill:#FFFFFF;" d="M735.14,275.003c0,0,10.265-0.816,10.512,5.729c0.294,7.728-6.824,23.294-10.041,29.182
					c0,0-0.159,0.305-0.471,0.305"/>
				<path style="fill:#FFFFFF;" d="M735.563,275.003c0,0-10.264-0.816-10.512,5.729c-0.293,7.728,6.824,23.294,10.04,29.182
					c0,0,0.16,0.305,0.472,0.305"/>
			</g>
			<circle style="fill:none;stroke:#FFFFFF;stroke-width:2.305;stroke-miterlimit:10;" cx="735.245" cy="314.03" r="43.629"/>
		</g>
	</g>
</g>
</svg>
