<?xml version="1.0" encoding="iso-8859-1"?>
<!-- Generator: Adobe Illustrator 16.0.0, SVG Export Plug-In . SVG Version: 6.00 Build 0)  -->
<!DOCTYPE svg PUBLIC "-//W3C//DTD SVG 1.1//EN" "http://www.w3.org/Graphics/SVG/1.1/DTD/svg11.dtd">
<svg version="1.1" id="&#x5716;&#x5C64;_1" xmlns="http://www.w3.org/2000/svg" xmlns:xlink="http://www.w3.org/1999/xlink" x="0px"
	 y="0px" width="450.527px" height="88.683px" viewBox="259.847 242.546 450.527 88.683"
	 style="enable-background:new 259.847 242.546 450.527 88.683;" xml:space="preserve">
<g>
	<g>
		<g>
			<path style="fill:#F25C78;" d="M324.628,259.068c-21.156-0.454-19.542-3.777-23.019-5.289c-2.042-0.888-4.529-0.158-6.239,0.596
				c0.155-0.945,0.294-1.934,0.403-2.927c0.132-1.133,0.229-2.268,0.293-3.329c0.078-1.063,0.098-2.055,0.131-2.905
				c0.006-0.424,0.012-0.817,0.016-1.162c-0.006-0.346,0.029-0.65-0.012-0.897c-0.059-0.125-0.216-0.242-0.457-0.339
				c-0.217-0.096-0.494-0.191-0.771-0.259c-0.322-0.067-0.568,0.223-0.734,0.188c-0.221-0.034-0.334,0.258-0.334,0.258h-1.209
				c0,0-0.114-0.292-0.334-0.258c-0.166,0.033-0.412-0.04-0.733,0.026c-0.279,0.064-0.555,0.057-0.771,0.152
				c-0.241,0.096-0.398,0.161-0.458,0.284c-0.041,0.248-0.005,0.525-0.011,0.871c0.004,0.345,0.01,0.723,0.015,1.147
				c0.035,0.851,0.053,1.834,0.132,2.897c0.063,1.063,0.16,2.192,0.292,3.326c0.11,0.989,0.249,1.974,0.402,2.915
				c-1.77-0.749-4.316-1.469-6.349-0.585c-3.476,1.512-1.969,4.835-23.125,5.288c-1.785,1.513-1.073,9.389,8.378,9.448
				c0.946,0.006,1.978-0.064,3.105-0.229c0.15,0.906-4.149,10.125,11.717,6.045c0.756,0.453,4.402,6.8,8.394,6.044
				c3.993,0.756,7.454-5.591,8.209-6.044c15.866,4.08,11.381-5.139,11.533-6.045c0.973,0.144,1.869,0.209,2.707,0.223
				C325.631,268.668,326.438,260.6,324.628,259.068z"/>
			<path style="fill:#F25C78;" d="M319.735,272.609c-1.112,0.313-2.415,0.486-3.935,0.461c-0.766-0.012-1.586-0.075-2.463-0.193
				c-0.051,0.146-0.114,0.289-0.187,0.428c0.451,2.06,2.79,9.287-11.591,5.588c-0.756,0.453-4.217,6.801-8.209,6.045
				c-3.992,0.756-7.638-5.592-8.394-6.045c-14.689,3.777-12.095-3.839-11.75-5.709c-0.049-0.104-0.092-0.208-0.131-0.313
				c-1.063,0.146-2.043,0.213-2.942,0.208c-1.496-0.01-2.772-0.216-3.854-0.561c-5.599,6.944-7.872,15.926-5.501,24.689
				c4.978,18.542,16.931,34.029,32.191,34.022c15.262,0.007,27.215-15.48,32.192-34.022
				C327.523,288.48,325.281,279.54,319.735,272.609z"/>
		</g>
		<g>
			<g>
				<path style="fill:#FFFFFF;" d="M311.229,285.532c0,0-0.012,0.132,0.004,0.324c0.021,0.188,0.063,0.441,0.174,0.688
					c0.104,0.248,0.269,0.491,0.498,0.704c0.221,0.222,0.461,0.453,0.722,0.665c0.515,0.438,1.081,0.804,1.564,1.026
					c0.472,0.232,0.855,0.316,0.855,0.316c0.46,0.104,0.977-0.209,1.109-0.703c0.05-0.175,0.046-0.344,0-0.495
					c0,0-0.114-0.374-0.382-0.826c-0.255-0.462-0.677-1.008-1.148-1.483c-0.232-0.242-0.481-0.465-0.719-0.667
					c-0.23-0.211-0.487-0.357-0.742-0.44c-0.248-0.087-0.506-0.111-0.694-0.118c-0.194-0.001-0.325,0.021-0.325,0.021
					C311.629,284.636,311.283,285.042,311.229,285.532z"/>
			</g>
			<g>
				<path style="fill:#FFFFFF;" d="M302.562,291.322c0,0-0.066,0.113-0.13,0.295c-0.059,0.178-0.122,0.425-0.122,0.691
					c-0.006,0.271,0.046,0.563,0.169,0.851c0.11,0.292,0.237,0.601,0.387,0.899c0.291,0.604,0.662,1.176,1.014,1.575
					c0.337,0.408,0.654,0.645,0.654,0.645c0.383,0.294,0.969,0.186,1.3-0.195c0.117-0.137,0.185-0.293,0.203-0.448
					c0,0,0.05-0.388-0.015-0.915c-0.051-0.533-0.212-1.198-0.447-1.824c-0.115-0.315-0.252-0.62-0.388-0.9
					c-0.124-0.287-0.3-0.526-0.499-0.705c-0.193-0.187-0.416-0.309-0.584-0.386c-0.174-0.073-0.304-0.109-0.304-0.109
					C303.285,290.651,302.811,290.896,302.562,291.322z"/>
			</g>
			<g>
				<path style="fill:#FFFFFF;" d="M292.282,293.065c0,0-0.106,0.079-0.238,0.222c-0.126,0.143-0.285,0.343-0.393,0.588
					c-0.116,0.248-0.186,0.53-0.191,0.846c-0.017,0.313-0.026,0.646-0.011,0.981c0.021,0.668,0.128,1.339,0.287,1.848
					c0.144,0.504,0.337,0.847,0.337,0.847c0.23,0.41,0.809,0.588,1.266,0.354c0.162-0.081,0.286-0.198,0.367-0.334
					c0,0,0.202-0.336,0.357-0.837c0.171-0.501,0.296-1.17,0.334-1.843c0.024-0.335,0.024-0.67,0.015-0.98
					c0.003-0.313-0.06-0.603-0.169-0.846c-0.102-0.247-0.256-0.455-0.377-0.6c-0.13-0.145-0.234-0.228-0.234-0.228
					c-0.207-0.163-0.444-0.238-0.679-0.233C292.716,292.847,292.483,292.916,292.282,293.065z"/>
			</g>
			<g>
				<path style="fill:#FFFFFF;" d="M282.184,290.502c0,0-0.129,0.027-0.305,0.1c-0.17,0.074-0.396,0.191-0.594,0.369
					c-0.205,0.173-0.386,0.408-0.519,0.691c-0.142,0.276-0.288,0.579-0.411,0.892c-0.253,0.617-0.432,1.279-0.497,1.81
					c-0.078,0.523-0.042,0.919-0.042,0.919c0.044,0.464,0.51,0.844,1.014,0.837c0.18-0.002,0.343-0.063,0.472-0.153
					c0,0,0.323-0.229,0.671-0.626c0.363-0.394,0.749-0.953,1.057-1.547c0.158-0.297,0.292-0.603,0.412-0.893
					c0.13-0.283,0.191-0.574,0.192-0.845c0.008-0.267-0.051-0.515-0.104-0.693c-0.059-0.183-0.122-0.298-0.122-0.298
					C283.161,290.605,282.679,290.381,282.184,290.502z"/>
			</g>
			<g>
				<path style="fill:#FFFFFF;" d="M274.007,284.029c0,0-0.13-0.025-0.324-0.028c-0.192,0.005-0.443,0.017-0.696,0.098
					c-0.256,0.076-0.517,0.216-0.753,0.423c-0.243,0.195-0.498,0.411-0.736,0.646c-0.483,0.465-0.919,0.999-1.19,1.455
					c-0.279,0.443-0.402,0.813-0.402,0.813c-0.146,0.442,0.107,0.995,0.584,1.179c0.169,0.066,0.34,0.081,0.494,0.052
					c0,0,0.386-0.076,0.864-0.297c0.488-0.21,1.068-0.563,1.59-0.981c0.264-0.206,0.512-0.432,0.739-0.646
					c0.234-0.21,0.405-0.447,0.518-0.694c0.117-0.242,0.167-0.494,0.192-0.683c0.021-0.19,0.012-0.321,0.012-0.321
					C274.852,284.525,274.499,284.128,274.007,284.029z"/>
			</g>
			<g>
				<path style="fill:#FFFFFF;" d="M311.42,297.03c0,0-0.061,0.118-0.114,0.305c-0.049,0.182-0.101,0.435-0.087,0.702
					c0.007,0.27,0.072,0.557,0.209,0.839c0.125,0.285,0.266,0.589,0.43,0.883c0.322,0.592,0.718,1.139,1.087,1.521
					c0.355,0.39,0.683,0.605,0.683,0.605c0.39,0.264,0.984,0.16,1.288-0.253c0.109-0.146,0.169-0.307,0.181-0.462
					c0,0,0.029-0.391-0.057-0.908c-0.072-0.521-0.266-1.186-0.531-1.8c-0.13-0.311-0.281-0.607-0.43-0.882
					c-0.138-0.282-0.324-0.511-0.53-0.683c-0.2-0.169-0.431-0.285-0.604-0.359c-0.18-0.072-0.311-0.101-0.311-0.101
					C312.119,296.34,311.649,296.592,311.42,297.03z"/>
			</g>
			<g>
				<path style="fill:#FFFFFF;" d="M302.975,303.205c0,0-0.102,0.085-0.225,0.232c-0.115,0.146-0.26,0.356-0.354,0.606
					c-0.099,0.251-0.148,0.544-0.135,0.855c0.004,0.313,0.016,0.646,0.053,0.979c0.064,0.667,0.217,1.33,0.406,1.83
					c0.178,0.498,0.393,0.828,0.393,0.828c0.258,0.41,0.846,0.509,1.289,0.267c0.156-0.089,0.272-0.212,0.346-0.352
					c0,0,0.179-0.347,0.301-0.863c0.137-0.521,0.215-1.196,0.21-1.868c0.001-0.334-0.023-0.667-0.052-0.979
					c-0.019-0.313-0.102-0.598-0.227-0.835c-0.117-0.239-0.284-0.431-0.414-0.562c-0.138-0.131-0.247-0.208-0.247-0.208
					C303.884,302.827,303.355,302.892,302.975,303.205z"/>
			</g>
			<g>
				<path style="fill:#FFFFFF;" d="M291.809,305.369c0,0-0.105,0.078-0.239,0.221c-0.125,0.14-0.284,0.343-0.393,0.588
					c-0.115,0.248-0.185,0.531-0.191,0.846c-0.017,0.313-0.026,0.646-0.011,0.981c0.021,0.668,0.128,1.34,0.287,1.846
					c0.144,0.508,0.337,0.85,0.337,0.85c0.229,0.408,0.809,0.587,1.265,0.353c0.164-0.081,0.287-0.198,0.368-0.332
					c0,0,0.201-0.336,0.358-0.838c0.171-0.501,0.295-1.168,0.333-1.843c0.024-0.334,0.023-0.669,0.015-0.98
					c0.002-0.313-0.06-0.604-0.169-0.845c-0.102-0.248-0.256-0.457-0.377-0.602c-0.128-0.146-0.233-0.227-0.233-0.227
					c-0.208-0.162-0.444-0.237-0.679-0.232C292.244,305.15,292.01,305.221,291.809,305.369z"/>
			</g>
			<g>
				<path style="fill:#FFFFFF;" d="M280.671,302.826c0,0-0.11,0.073-0.249,0.202c-0.132,0.132-0.3,0.322-0.421,0.561
					c-0.127,0.235-0.211,0.521-0.233,0.833c-0.032,0.311-0.059,0.644-0.061,0.979c-0.013,0.67,0.061,1.348,0.191,1.866
					c0.117,0.518,0.292,0.872,0.292,0.872c0.209,0.415,0.781,0.603,1.248,0.412c0.167-0.066,0.297-0.182,0.384-0.313
					c0,0,0.219-0.329,0.4-0.825c0.197-0.497,0.354-1.159,0.427-1.823c0.04-0.334,0.056-0.667,0.063-0.979
					c0.017-0.313-0.031-0.604-0.127-0.855c-0.089-0.253-0.233-0.465-0.347-0.61c-0.122-0.149-0.222-0.233-0.222-0.233
					C281.619,302.568,281.088,302.534,280.671,302.826z"/>
			</g>
			<g>
				<path style="fill:#FFFFFF;" d="M272.404,295.862c0,0-0.129,0.032-0.307,0.111c-0.172,0.084-0.395,0.202-0.589,0.383
					c-0.2,0.179-0.377,0.414-0.504,0.7c-0.137,0.281-0.276,0.583-0.394,0.896c-0.241,0.625-0.409,1.296-0.461,1.822
					c-0.065,0.521-0.02,0.909-0.02,0.909c0.054,0.462,0.516,0.854,1.028,0.82c0.181-0.013,0.341-0.069,0.469-0.164
					c0,0,0.317-0.231,0.657-0.634c0.354-0.396,0.729-0.964,1.025-1.563c0.152-0.298,0.281-0.605,0.395-0.896
					c0.125-0.288,0.18-0.576,0.177-0.85c0.003-0.269-0.058-0.519-0.114-0.697c-0.063-0.184-0.127-0.299-0.127-0.299
					C273.379,295.954,272.892,295.743,272.404,295.862z"/>
			</g>
			<g>
				<path style="fill:#FFFFFF;" d="M296.48,315.44c0,0-0.075,0.082-0.164,0.22c-0.082,0.139-0.182,0.332-0.232,0.559
					c-0.057,0.225-0.068,0.479-0.023,0.749c0.037,0.268,0.081,0.554,0.147,0.837c0.124,0.565,0.317,1.126,0.526,1.537
					c0.196,0.412,0.406,0.679,0.406,0.679c0.252,0.322,0.743,0.355,1.08,0.108c0.121-0.094,0.204-0.208,0.25-0.334
					c0,0,0.113-0.313,0.165-0.765c0.063-0.459,0.063-1.052-0.004-1.63c-0.03-0.29-0.079-0.575-0.134-0.841
					c-0.043-0.268-0.139-0.505-0.265-0.699c-0.121-0.195-0.277-0.341-0.401-0.449c-0.129-0.104-0.229-0.161-0.229-0.161
					C297.209,315.025,296.769,315.127,296.48,315.44z"/>
			</g>
			<g>
				<path style="fill:#FFFFFF;" d="M287.645,315.172c0,0-0.101,0.055-0.229,0.151c-0.124,0.102-0.284,0.248-0.408,0.441
					c-0.129,0.191-0.228,0.43-0.276,0.697c-0.058,0.265-0.113,0.549-0.147,0.838c-0.077,0.575-0.084,1.168-0.028,1.627
					c0.045,0.456,0.153,0.773,0.153,0.774c0.129,0.377,0.576,0.59,0.978,0.468c0.144-0.042,0.262-0.123,0.347-0.227
					c0,0,0.214-0.256,0.418-0.67c0.214-0.408,0.417-0.964,0.551-1.531c0.07-0.281,0.119-0.567,0.159-0.835
					c0.05-0.267,0.042-0.522-0.011-0.748c-0.047-0.226-0.145-0.419-0.224-0.559c-0.086-0.136-0.161-0.227-0.161-0.227
					C288.471,315.031,288.024,314.964,287.645,315.172z"/>
			</g>
		</g>
	</g>
	<g>
		<path style="fill:#F25C78;" d="M338.878,267.791c-0.728-0.727-1.09-1.582-1.09-2.566v-0.281c0-0.983,0.362-1.839,1.09-2.565
			c0.726-0.727,1.582-1.09,2.566-1.09h0.422c0.984,0,1.839,0.363,2.566,1.09c0.726,0.728,1.09,1.582,1.09,2.565v0.281
			c0,0.984-0.364,1.84-1.09,2.566c-0.728,0.728-1.582,1.09-2.566,1.09h-0.422C340.46,268.881,339.604,268.519,338.878,267.791z
			 M339.3,311.453c-0.633-0.633-0.949-1.395-0.949-2.284v-30.163c0-0.891,0.316-1.664,0.949-2.32
			c0.633-0.656,1.394-0.983,2.285-0.983c0.937,0,1.723,0.315,2.355,0.948c0.632,0.634,0.949,1.418,0.949,2.355v30.163
			c0,0.891-0.329,1.651-0.984,2.284c-0.657,0.634-1.431,0.949-2.32,0.949C340.694,312.403,339.933,312.087,339.3,311.453z"/>
		<path style="fill:#F25C78;" d="M408.487,282.31c0.867,2.063,1.301,4.267,1.301,6.609v20.25c0,0.891-0.329,1.651-0.984,2.284
			c-0.657,0.634-1.431,0.949-2.32,0.949c-0.891,0-1.652-0.315-2.285-0.949c-0.633-0.633-0.949-1.395-0.949-2.284v-18.984
			c0-3.14-0.552-5.39-1.652-6.75c-1.102-1.358-2.918-2.039-5.449-2.039c-2.25,0-4.148,0.574-5.695,1.724
			c-1.547,1.148-3,2.802-4.359,4.957v21.094c0,0.891-0.329,1.651-0.984,2.284c-0.657,0.634-1.431,0.949-2.32,0.949
			c-0.891,0-1.652-0.315-2.285-0.949c-0.633-0.633-0.949-1.395-0.949-2.284v-18.984c0-3.14-0.552-5.39-1.652-6.75
			c-1.102-1.358-2.918-2.039-5.449-2.039c-2.25,0-4.148,0.574-5.695,1.724c-1.547,1.148-3,2.802-4.359,4.957v21.094
			c0,0.891-0.329,1.651-0.984,2.284c-0.657,0.634-1.431,0.949-2.32,0.949c-0.891,0-1.652-0.315-2.285-0.949
			c-0.633-0.633-0.949-1.395-0.949-2.284v-30.163c0-0.891,0.316-1.664,0.949-2.32c0.633-0.656,1.394-0.983,2.285-0.983
			c0.89,0,1.663,0.327,2.32,0.983c0.656,0.656,0.984,1.431,0.984,2.32v2.6c1.452-1.967,3.117-3.502,4.992-4.604
			c1.874-1.103,4.171-1.652,6.891-1.652c2.531,0,4.746,0.668,6.645,2.004c1.899,1.336,3.27,3.06,4.113,5.167
			c2.906-4.779,7.218-7.17,12.938-7.17c2.718,0,4.945,0.656,6.68,1.969C406.343,278.584,407.619,280.249,408.487,282.31z"/>
		<path style="fill:#F25C78;" d="M423.921,311.489c-1.828-0.844-3.259-2.085-4.289-3.727c-1.032-1.642-1.547-3.517-1.547-5.625
			c0-3.656,1.417-6.479,4.254-8.473c2.835-1.992,6.831-2.988,11.988-2.988h8.438v-0.492c0-2.999-0.737-5.19-2.215-6.574
			c-1.477-1.382-3.855-2.073-7.137-2.073c-1.688,0-3.211,0.13-4.57,0.387c-1.359,0.258-2.953,0.691-4.781,1.301l-0.913,0.141
			c-0.703,0-1.325-0.27-1.863-0.809c-0.54-0.538-0.809-1.184-0.809-1.933c0-1.313,0.633-2.227,1.898-2.741
			c3.938-1.688,7.991-2.531,12.164-2.531c3.234,0,6,0.656,8.297,1.969c2.155,1.267,3.772,2.941,4.852,5.026
			c1.078,2.086,1.617,4.395,1.617,6.926v19.898c0,0.891-0.329,1.651-0.983,2.284c-0.657,0.634-1.432,0.949-2.32,0.949
			c-0.891,0-1.652-0.315-2.285-0.949c-0.633-0.633-0.949-1.395-0.949-2.284v-1.688c-3.375,3.516-7.759,5.273-13.147,5.273
			C427.6,312.755,425.702,312.332,423.921,311.489z M437.878,305.548c1.898-0.96,3.526-2.216,4.887-3.763v-5.835h-7.594
			c-7.031,0-10.547,1.827-10.547,5.483c0,3.703,2.461,5.555,7.383,5.555C434.021,306.989,435.979,306.509,437.878,305.548z"/>
		<path style="fill:#F25C78;" d="M468.604,327.871c-2.791-0.702-5.099-1.57-6.927-2.602c-0.891-0.563-1.336-1.406-1.336-2.531
			c0-0.75,0.281-1.431,0.845-2.039c0.563-0.608,1.24-0.914,2.038-0.914c0.375,0,0.796,0.095,1.267,0.281
			c3.656,1.781,7.522,2.672,11.602,2.672c7.125,0,10.688-3.797,10.688-11.391v-4.5c-3.234,3.47-7.22,5.203-11.953,5.203
			c-2.813,0-5.484-0.703-8.017-2.109c-2.767-1.452-4.969-3.574-6.608-6.363c-1.643-2.787-2.461-6.081-2.461-9.878
			c0-3.938,0.844-7.313,2.53-10.125c1.641-2.672,3.763-4.709,6.363-6.116c2.602-1.407,5.332-2.109,8.191-2.109
			c4.734,0,8.719,1.734,11.953,5.202v-1.546c0-0.891,0.315-1.664,0.949-2.32c0.633-0.656,1.395-0.983,2.284-0.983
			c0.891,0,1.663,0.327,2.32,0.983c0.656,0.656,0.984,1.431,0.984,2.32v31.428c0,5.906-1.432,10.465-4.289,13.676
			c-2.859,3.21-6.961,4.816-12.306,4.816C474.1,328.927,471.393,328.574,468.604,327.871z M481.753,304.774
			c1.663-0.867,3.34-2.145,5.027-3.832v-14.483c-1.688-1.688-3.364-2.964-5.027-3.832c-1.665-0.867-3.528-1.301-5.59-1.301
			c-3.61,0-6.493,1.078-8.648,3.233c-2.156,2.156-3.233,5.203-3.233,9.142c0,3.938,1.078,6.984,3.233,9.141
			c2.155,2.155,5.038,3.233,8.648,3.233C478.225,306.074,480.088,305.643,481.753,304.774z"/>
		<path style="fill:#F28444;" d="M506.925,307.832c-3.211-3.279-4.815-7.875-4.815-13.78c0-3.188,0.607-6.258,1.827-9.211
			c1.267-2.953,3.188-5.272,5.767-6.959c2.577-1.688,5.671-2.531,9.281-2.531c3.469,0,6.491,0.797,9.069,2.392
			c2.438,1.594,4.335,3.736,5.695,6.432c1.359,2.696,2.039,5.685,2.039,8.965c0,0.891-0.307,1.652-0.914,2.285
			c-0.609,0.633-1.406,0.949-2.391,0.949h-23.767c0.422,3.328,1.676,5.87,3.763,7.629c2.085,1.758,4.909,2.637,8.473,2.637
			c1.874,0,3.551-0.176,5.027-0.527c1.476-0.351,2.964-0.902,4.465-1.652c0.327-0.187,0.749-0.28,1.266-0.28
			c0.749,0,1.417,0.271,2.004,0.809c0.586,0.539,0.879,1.207,0.879,2.004c0,1.079-0.633,1.97-1.897,2.672
			c-1.97,1.079-3.845,1.863-5.625,2.355c-1.782,0.492-4.008,0.738-6.681,0.738C514.624,312.755,510.135,311.114,506.925,307.832z
			 M529.249,290.114c-0.188-1.873-0.75-3.444-1.688-4.711c-1.031-1.5-2.311-2.625-3.832-3.375c-1.523-0.749-3.105-1.125-4.746-1.125
			c-1.501,0-3.07,0.352-4.711,1.055c-1.643,0.798-2.942,1.979-3.902,3.551c-0.961,1.571-1.512,3.41-1.652,5.52h19.688
			C529.014,291.028,529.295,290.724,529.249,290.114z"/>
		<path style="fill:#753F8C;" d="M547.706,311.453c-0.633-0.633-0.949-1.395-0.949-2.284v-27.492h-4.078
			c-0.75,0-1.405-0.281-1.969-0.843c-0.563-0.563-0.844-1.218-0.844-1.968c0-0.798,0.281-1.466,0.844-2.005
			c0.563-0.538,1.219-0.809,1.969-0.809h4.078v-4.008c0-2.858,0.517-5.179,1.547-6.961c0.938-1.733,2.215-3.034,3.832-3.902
			c1.617-0.867,3.363-1.301,5.238-1.301c2.109,0,4.148,0.469,6.117,1.406c1.125,0.656,1.688,1.501,1.688,2.53
			c0,0.703-0.271,1.336-0.809,1.898c-0.539,0.563-1.16,0.844-1.863,0.844c-0.517,0-1.055-0.069-1.617-0.211l-1.897-0.211
			c-2.063,0-3.527,0.469-4.396,1.406s-1.301,2.508-1.301,4.711v3.797h8.719c0.797,0,1.465,0.271,2.004,0.809
			c0.538,0.539,0.81,1.207,0.81,2.005c0,0.75-0.271,1.405-0.81,1.968c-0.539,0.562-1.207,0.843-2.004,0.843h-8.719v27.492
			c0,0.891-0.328,1.651-0.984,2.284c-0.656,0.634-1.431,0.949-2.319,0.949C549.101,312.403,548.339,312.087,547.706,311.453z"/>
		<path style="fill:#753F8C;" d="M571.894,311.453c-0.633-0.633-0.948-1.395-0.948-2.284v-30.163c0-0.891,0.315-1.664,0.948-2.32
			c0.634-0.656,1.396-0.983,2.285-0.983c0.891,0,1.663,0.327,2.32,0.983c0.656,0.656,0.984,1.431,0.984,2.32v2.811
			c3.233-4.311,6.891-6.467,10.969-6.467h0.352c0.891,0,1.642,0.316,2.25,0.949s0.914,1.395,0.914,2.285
			c0,0.89-0.315,1.629-0.949,2.214c-0.633,0.586-1.418,0.878-2.354,0.878h-0.353c-2.203,0-4.229,0.527-6.081,1.582
			c-1.854,1.055-3.436,2.566-4.746,4.535v21.375c0,0.891-0.328,1.651-0.984,2.284c-0.657,0.634-1.431,0.949-2.32,0.949
			C573.288,312.403,572.526,312.087,571.894,311.453z"/>
		<path style="fill:#753F8C;" d="M603.429,310.927c-1.875-1.22-3.329-2.883-4.358-4.992c-1.031-2.109-1.547-4.453-1.547-7.031
			v-19.967c0-0.891,0.326-1.651,0.983-2.285c0.656-0.633,1.43-0.948,2.32-0.948c0.89,0,1.652,0.315,2.285,0.948
			c0.633,0.634,0.948,1.396,0.948,2.285v19.263c0,5.672,2.556,8.508,7.664,8.508c2.25,0,4.277-0.563,6.082-1.688
			s3.598-2.788,5.379-4.992v-21.092c0-0.891,0.327-1.651,0.984-2.285c0.656-0.633,1.43-0.948,2.32-0.948
			c0.89,0,1.651,0.315,2.285,0.948c0.633,0.634,0.948,1.396,0.948,2.285v30.163c0,0.891-0.315,1.664-0.948,2.32
			c-0.634,0.655-1.396,0.983-2.285,0.983c-0.892,0-1.664-0.328-2.32-0.983c-0.657-0.656-0.984-1.431-0.984-2.32v-2.672
			c-1.923,2.063-3.913,3.633-5.977,4.711s-4.406,1.617-7.031,1.617C607.647,312.755,605.397,312.146,603.429,310.927z"/>
		<path style="fill:#753F8C;" d="M641.644,311.453c-0.633-0.633-0.948-1.395-0.948-2.284v-30.163c0-0.891,0.315-1.664,0.948-2.32
			c0.634-0.656,1.396-0.983,2.285-0.983c0.938,0,1.724,0.315,2.355,0.948c0.632,0.634,0.949,1.418,0.949,2.355v30.163
			c0,0.891-0.328,1.651-0.984,2.284c-0.657,0.634-1.432,0.949-2.32,0.949C643.038,312.403,642.276,312.087,641.644,311.453z"/>
		<path style="fill:#753F8C;" d="M677.397,307.13c0.516,0.517,0.772,1.125,0.772,1.827c0,1.079-0.563,1.924-1.688,2.531
			c-1.828,0.844-3.773,1.267-5.837,1.267c-6.891,0-10.336-3.117-10.336-9.353v-21.375h-3.516c-0.891,0-1.582-0.245-2.074-0.737
			s-0.737-1.183-0.737-2.073s0.245-1.582,0.737-2.074s1.185-0.738,2.074-0.738h3.516v-4.992c0-1.078,0.292-1.898,0.88-2.461
			c0.586-0.563,1.395-0.845,2.426-0.845c1.03,0,1.828,0.293,2.391,0.879c0.563,0.587,0.844,1.396,0.844,2.427v4.992h7.875
			c0.798,0,1.466,0.271,2.005,0.81c0.537,0.539,0.809,1.207,0.809,2.004c0,0.75-0.271,1.405-0.809,1.967
			c-0.539,0.563-1.207,0.844-2.005,0.844h-7.875v20.813c0,1.642,0.375,2.742,1.125,3.305c0.749,0.563,1.874,0.844,3.375,0.844
			c0.984,0,1.923-0.141,2.813-0.422c0.094,0,0.164-0.022,0.211-0.07c0.468-0.094,0.867-0.141,1.195-0.141
			C676.272,306.356,676.881,306.614,677.397,307.13z"/>
		<path style="fill:#753F8C;" d="M683.866,309.591c-0.798-0.563-1.195-1.359-1.195-2.392c0-0.749,0.271-1.417,0.81-2.004
			c0.538-0.586,1.206-0.879,2.004-0.879c0.468,0,0.89,0.095,1.266,0.281c1.593,0.703,3.14,1.229,4.641,1.582
			c1.5,0.352,3.141,0.527,4.923,0.527c5.155,0,7.733-1.642,7.733-4.923c0-1.029-0.563-1.827-1.688-2.391
			c-1.172-0.563-3.142-1.195-5.906-1.897c-2.719-0.608-4.992-1.289-6.82-2.039c-2.016-0.749-3.633-1.874-4.852-3.375
			c-1.22-1.5-1.828-3.352-1.828-5.556c0-3.327,1.219-6.021,3.656-8.084c2.437-2.063,5.812-3.094,10.125-3.094
			c3.75,0,7.146,0.586,10.194,1.758c0.656,0.188,1.172,0.539,1.547,1.056c0.375,0.516,0.563,1.078,0.563,1.688
			c0,0.749-0.281,1.417-0.844,2.002c-0.563,0.587-1.242,0.879-2.039,0.879l-0.914-0.141c-2.813-0.844-5.484-1.266-8.017-1.266
			c-2.438,0-4.384,0.445-5.836,1.336s-2.18,2.063-2.18,3.516c0,1.36,0.633,2.367,1.898,3.023c1.358,0.608,3.397,1.241,6.117,1.897
			c2.53,0.657,4.78,1.336,6.75,2.039c1.922,0.75,3.469,1.888,4.641,3.41c1.171,1.522,1.758,3.435,1.758,5.729
			c0,3.048-1.22,5.556-3.656,7.523c-2.438,1.969-5.766,2.953-9.983,2.953C692.093,312.755,687.804,311.699,683.866,309.591z"/>
		<path style="fill:none;stroke:#753F8C;stroke-miterlimit:10;" d="M644.702,270.511c-4.169-0.189-7.396-3.723-7.206-7.893
			c0.151-3.335,2.979-5.917,6.313-5.766c2.669,0.121,4.733,2.382,4.611,5.051c-0.097,2.136-1.906,3.787-4.04,3.69
			c-1.708-0.078-3.028-1.525-2.952-3.233c0.063-1.365,1.221-2.423,2.587-2.36c1.094,0.05,1.938,0.976,1.89,2.068
			c-0.04,0.875-0.781,1.552-1.655,1.512c-0.699-0.032-1.241-0.625-1.209-1.324c0.025-0.561,0.499-0.992,1.059-0.967"/>
	</g>
</g>
</svg>
